<svg t="1593697241215" class="icon" viewBox="0 0 1167 1024" version="1.1" xmlns="http://www.w3.org/2000/svg" p-id="17800" width="200" height="200"><path d="M583.008625 838.981979a481.046855 481.046855 0 0 1-480.214274-480.121765c0-10.361009 0-19.796928 0.92509-28.862811A476.791441 476.791441 0 0 1 203.721681 64.774069a27.752703 27.752703 0 0 1 24.052343-10.638536 481.046855 481.046855 0 0 1 211.568107 67.439069A482.064454 482.064454 0 0 1 575.237868 3.718122a27.752703 27.752703 0 0 1 27.752703 0 485.117252 485.117252 0 0 1 136.728318 118.226516A482.064454 482.064454 0 0 1 938.428244 55.523168a27.752703 27.752703 0 0 1 24.884923 10.638536 474.756242 474.756242 0 0 1 99.724714 292.976037 479.381693 479.381693 0 0 1-473.183589 479.751729z m6.105595-55.505407A426.651557 426.651557 0 0 0 999.299173 442.950904a434.052278 434.052278 0 0 0 8.233302-84.09069 419.343345 419.343345 0 0 0-78.817678-246.444004 424.431341 424.431341 0 0 0-180.022534 69.751794 27.752703 27.752703 0 0 1-38.39124-6.383122 430.351917 430.351917 0 0 0-121.186803-115.636263 427.206611 427.206611 0 0 0-120.261714 114.526155 27.752703 27.752703 0 0 1-38.298731 6.938176A425.541449 425.541449 0 0 0 238.227542 111.028574a422.303633 422.303633 0 0 0-79.280222 222.021626c-0.462545 7.955775-0.740072 16.189077-0.740072 25.439978A425.541449 425.541449 0 0 0 583.008625 783.476572M456.826334 1024a27.752703 27.752703 0 0 1-16.651621-5.550541 869.5847 869.5847 0 0 0-415.550476-166.516219 27.752703 27.752703 0 1 1 6.660649-55.505406 925.64516 925.64516 0 0 1 442.19307 177.6173 27.752703 27.752703 0 0 1-16.651622 49.954866zM710.578551 1024a27.752703 27.752703 0 0 1-16.651622-49.954866 925.64516 925.64516 0 0 1 442.19307-177.6173 27.752703 27.752703 0 0 1 6.753158 55.505406 869.5847 869.5847 0 0 0-415.642985 166.516219 27.752703 27.752703 0 0 1-16.651621 5.550541z" fill="" p-id="17801"></path></svg>