<svg t="1593697413484" class="icon" viewBox="0 0 1024 1024" version="1.1" xmlns="http://www.w3.org/2000/svg" p-id="29904" width="200" height="200"><path d="M689.4 941.9H334.5c-13.2 0-25.7-5.8-34.3-15.8l-160-187.8c-6.9-8.1-10.7-18.5-10.7-29.2V356c0-10.9 3.9-21.4 11.1-29.6l159.8-182.9c8.5-9.8 20.9-15.4 33.9-15.4h355.3c12.9 0 25.2 5.5 33.7 15.2l161.8 183c7.3 8.2 11.3 18.8 11.3 29.8v352.8c0 10.8-3.9 21.2-10.9 29.4l-162 188c-8.6 9.9-21 15.6-34.1 15.6zM334.3 158.1c-4.3 0-8.4 1.9-11.3 5.1L163.2 346.1c-2.4 2.7-3.7 6.2-3.7 9.9v353.1c0 3.6 1.3 7 3.6 9.7l160 187.8c2.9 3.4 7 5.3 11.4 5.3h354.9c4.4 0 8.5-1.9 11.4-5.2l162.1-187.9c2.3-2.7 3.6-6.2 3.6-9.8V356.1c0-3.7-1.3-7.2-3.8-9.9l-161.8-183c-2.8-3.2-6.9-5.1-11.2-5.1H334.3z" fill="" p-id="29905"></path><path d="M595.4 941.9h-165c-5.1 0-9.8-2.6-12.6-6.8l-55.6-85.8c-0.4-0.6-0.8-1.3-1.1-1.9-18.8-41.1-19.5-88.6-1.8-130.3l87.8-204.3c0.1-0.3 0.3-0.7 0.5-1 0.7-1.3 0.9-2.7 0.8-4.1l-9.8-116.2c-0.4-4.2 1.1-8.3 3.9-11.4 2.8-3.1 6.8-4.8 11-4.8h118.6c4.2 0 8.2 1.8 11 4.8 2.8 3.1 4.3 7.2 3.9 11.4l-9.8 116.2c-0.1 1.4 0.2 2.8 0.8 4.1 0.2 0.3 0.3 0.7 0.5 1l88 204.2c17.7 41.7 17 89.2-1.8 130.3-0.3 0.7-0.7 1.3-1.1 1.9L608 935c-2.8 4.3-7.5 6.9-12.6 6.9z m-156.8-30h148.7l50.6-78c14.9-33.3 15.3-71.5 1-105.1l-87.5-203.7c-3.1-6.2-4.4-13-3.8-19.9l8.4-99.9h-86l8.4 99.9c0.6 6.9-0.7 13.8-3.8 19.9L387 728.9c-14.2 33.5-13.8 71.8 1.1 105l50.5 78z" fill="" p-id="29906"></path><path d="M550.2 769.3c-3.8 0-7.7-1.5-10.6-4.4-5.9-5.9-5.9-15.4 0-21.2l30-30c5.9-5.9 15.4-5.9 21.2 0 5.9 5.9 5.9 15.4 0 21.2l-30 30c-2.9 3-6.8 4.4-10.6 4.4zM524.7 874.3c-3.8 0-7.7-1.5-10.6-4.4-5.9-5.9-5.9-15.4 0-21.2l81-81c5.9-5.9 15.4-5.9 21.2 0 5.9 5.9 5.9 15.4 0 21.2l-81 81c-2.9 3-6.8 4.4-10.6 4.4z" fill="" p-id="29907"></path></svg>