<?xml version="1.0" encoding="utf-8"?>
<svg version="1.1" xmlns:xlink="http://www.w3.org/1999/xlink" width="33px" height="24px" xmlns="http://www.w3.org/2000/svg">
  <g transform="matrix(1 0 0 1 -573 -254 )">
    <path d="M 11.0951450892858 8.58593750000006  C 11.5555245535716 8.9765625  11.7857142857142 9.44791666666654  11.7857142857142 9.99999999999994  C 11.7857142857142 10.5520833333334  11.5555245535716 11.0234375000001  11.0951450892858 11.4140625  C 10.634765625 11.8046874999999  10.0792410714287 12  9.42857142857156 12  C 8.77790178571433 12  8.22237723214278 11.8046874999999  7.76199776785722 11.4140625  C 7.30161830357156 11.0234375000001  7.07142857142844 10.5520833333334  7.07142857142844 9.99999999999994  C 7.07142857142844 9.44791666666654  7.30161830357156 8.9765625  7.76199776785722 8.58593750000006  C 8.22237723214278 8.19531249999994  8.77790178571433 8.00000000000006  9.42857142857156 8.00000000000006  C 10.0792410714287 8.00000000000006  10.634765625 8.19531249999994  11.0951450892858 8.58593750000006  Z M 18.1665736607142 8.58593750000006  C 18.626953125 8.9765625  18.8571428571428 9.44791666666654  18.8571428571428 9.99999999999994  C 18.8571428571428 10.5520833333334  18.626953125 11.0234375000001  18.1665736607142 11.4140625  C 17.7061941964284 11.8046874999999  17.1506696428572 12  16.5 12  C 15.8493303571428 12  15.2938058035716 11.8046874999999  14.8334263392858 11.4140625  C 14.373046875 11.0234375000001  14.1428571428572 10.5520833333334  14.1428571428572 9.99999999999994  C 14.1428571428572 9.44791666666654  14.373046875 8.9765625  14.8334263392858 8.58593750000006  C 15.2938058035716 8.19531249999994  15.8493303571428 8.00000000000006  16.5 8.00000000000006  C 17.1506696428572 8.00000000000006  17.7061941964284 8.19531249999994  18.1665736607142 8.58593750000006  Z M 25.2380022321428 8.58593750000006  C 25.6983816964284 8.9765625  25.9285714285716 9.44791666666654  25.9285714285716 9.99999999999994  C 25.9285714285716 10.5520833333334  25.6983816964284 11.0234375000001  25.2380022321428 11.4140625  C 24.7776227678572 11.8046874999999  24.2220982142857 12  23.5714285714284 12  C 22.9207589285713 12  22.365234375 11.8046874999999  21.9048549107142 11.4140625  C 21.4444754464284 11.0234375000001  21.2142857142858 10.5520833333334  21.2142857142858 9.99999999999994  C 21.2142857142858 9.44791666666654  21.4444754464284 8.9765625  21.9048549107142 8.58593750000006  C 22.365234375 8.19531249999994  22.9207589285713 8.00000000000006  23.5714285714284 8.00000000000006  C 24.2220982142857 8.00000000000006  24.7776227678572 8.19531249999994  25.2380022321428 8.58593750000006  Z M 23.525390625 3.08593749999994  C 21.3462611607143 2.36197916666663  19.0044642857142 2.00000000000006  16.5 2.00000000000006  C 13.9955357142858 2.00000000000006  11.6537388392857 2.36197916666663  9.474609375 3.08593749999994  C 7.29547991071433 3.8098958333334  5.56445312500011 4.78645833333337  4.28152901785722 6.01562499999994  C 2.99860491071433 7.24479166666654  2.35714285714278 8.57291666666663  2.35714285714278 9.99999999999994  C 2.35714285714278 11.1666666666666  2.79603794642867 12.2786458333335  3.673828125 13.3359375  C 4.55161830357133 14.3932291666665  5.78850446428567 15.3072916666665  7.38448660714278 16.078125  L 8.98660714285722 16.8593750000001  L 8.48939732142844 18.3593750000001  C 8.19475446428578 19.3072916666666  7.76506696428567 20.203125  7.20033482142844 21.046875  C 9.06640624999989 20.390625  10.7544642857142 19.5  12.2645089285716 18.375  L 13.0563616071428 17.7812499999999  L 14.1060267857142 17.8749999999999  C 14.953125 17.9583333333334  15.7511160714287 18  16.5 18  C 19.0044642857142 18  21.3462611607143 17.6380208333334  23.525390625 16.9140624999999  C 25.7045200892857 16.1901041666666  27.4355468749999 15.2135416666665  28.7184709821428 13.9843749999999  C 30.0013950892857 12.7552083333334  30.6428571428572 11.4270833333334  30.6428571428572 9.99999999999994  C 30.6428571428572 8.57291666666663  30.0013950892857 7.24479166666654  28.7184709821428 6.01562499999994  C 27.4355468749999 4.78645833333337  25.7045200892857 3.8098958333334  23.525390625 3.08593749999994  Z M 31.6925223214284 6.1171875  C 32.5641741071429 7.35156249999994  33 8.64583333333346  33 9.99999999999994  C 33 11.8125  32.2633928571428 13.4869791666666  30.7901785714284 15.0234375  C 29.3169642857142 16.5598958333334  27.3158482142857 17.7734375000001  24.7868303571428 18.6640625000001  C 22.2578125000001 19.5546875000001  19.4955357142857 20.0000000000001  16.5 20.0000000000001  C 15.6406249999999 20.0000000000001  14.7505580357142 19.9583333333334  13.8297991071428 19.875  C 11.3989955357142 21.6979166666666  8.57533482142856 22.9583333333334  5.35881696428578 23.6562500000001  C 4.75725446428567 23.8020833333334  4.05747767857144 23.9166666666666  3.25948660714278 24  L 3.16741071428578 24  C 2.98325892857156 24  2.81752232142844 23.9453124999999  2.67020089285722 23.8359375  C 2.52287946428578 23.7265625000001  2.42466517857133 23.5833333333334  2.37555803571422 23.4062499999999  L 2.37555803571422 23.390625  C 2.33872767857156 23.3489583333334  2.33565848214289 23.2864583333334  2.36635044642844 23.203125  C 2.39704241071433 23.1197916666666  2.40931919642867 23.0677083333334  2.40318080357156 23.0468750000001  C 2.39704241071433 23.0260416666666  2.42466517857133 22.9765625000001  2.48604910714278 22.8984375  L 2.59654017857156 22.7578125  C 2.59654017857156 22.7578125  2.63950892857144 22.7135416666665  2.72544642857156 22.6250000000001  C 2.81138392857133 22.5364583333334  2.86049107142867 22.4895833333334  2.87276785714278 22.4843750000001  C 2.95870535714278 22.4010416666666  3.14899553571422 22.2213541666665  3.44363839285722 21.9453125000001  C 3.73828125 21.6692708333334  3.95005580357156 21.4713541666665  4.07896205357156 21.3515625  C 4.20786830357156 21.2317708333335  4.39815848214289 21.0260416666665  4.64983258928578 20.7343749999999  C 4.90150669642856 20.4427083333334  5.10100446428578 20.1770833333335  5.24832589285722 19.9374999999999  C 5.39564732142844 19.6979166666666  5.56138392857156 19.3906250000001  5.74553571428578 19.0156250000001  C 5.9296875 18.6406250000001  6.08928571428567 18.2447916666666  6.22433035714278 17.8281249999999  C 4.29687499999989 16.9010416666665  2.77762276785722 15.7552083333334  1.66657366071422 14.390625  C 0.555524553571331 13.0260416666666  0 11.5625000000001  0 9.99999999999994  C 0 8.64583333333346  0.43582589285711 7.35156249999994  1.30747767857156 6.1171875  C 2.17912946428567 4.88281250000006  3.3515625 3.81770833333346  4.82477678571422 2.92187499999994  C 6.29799107142844 2.0260416666666  8.05357142857144 1.31510416666654  10.0915178571428 0.789062499999943  C 12.1294642857143 0.263020833333371  14.2656250000001 0  16.5 0  C 18.7343749999999 0  20.8705357142857 0.263020833333371  22.9084821428572 0.789062499999943  C 24.9464285714286 1.31510416666654  26.7020089285716 2.0260416666666  28.1752232142858 2.92187499999994  C 29.6484375 3.81770833333346  30.8208705357143 4.88281250000006  31.6925223214284 6.1171875  Z " fill-rule="nonzero" fill="#333333" stroke="none" transform="matrix(1 0 0 1 573 254 )" />
  </g>
</svg>