<?xml version="1.0" encoding="utf-8"?>
<svg version="1.1" xmlns:xlink="http://www.w3.org/1999/xlink" width="30px" height="24px" xmlns="http://www.w3.org/2000/svg">
  <g transform="matrix(1 0 0 1 -628 -254 )">
    <path d="M 5.49107142857133 18.4090909090909  C 6.11607142857144 19.0454545454545  6.42857142857133 19.8181818181818  6.42857142857133 20.7272727272727  C 6.42857142857133 21.6363636363635  6.11607142857144 22.4090909090908  5.49107142857133 23.0454545454545  C 4.86607142857144 23.6818181818182  4.10714285714289 24  3.21428571428567 24  C 2.32142857142856 24  1.56249999999989 23.6818181818182  0.9375 23.0454545454545  C 0.312500000000114 22.4090909090908  0 21.6363636363635  0 20.7272727272727  C 0 19.8181818181818  0.312500000000114 19.0454545454545  0.9375 18.4090909090909  C 1.56249999999989 17.7727272727274  2.32142857142856 17.4545454545455  3.21428571428567 17.4545454545455  C 4.10714285714289 17.4545454545455  4.86607142857144 17.7727272727274  5.49107142857133 18.4090909090909  Z M 5.49107142857133 9.68181818181827  C 6.11607142857144 10.3181818181818  6.42857142857133 11.0909090909091  6.42857142857133 12  C 6.42857142857133 12.9090909090909  6.11607142857144 13.6818181818182  5.49107142857133 14.3181818181817  C 4.86607142857144 14.9545454545456  4.10714285714289 15.2727272727273  3.21428571428567 15.2727272727273  C 2.32142857142856 15.2727272727273  1.56249999999989 14.9545454545456  0.9375 14.3181818181817  C 0.312500000000114 13.6818181818182  0 12.9090909090909  0 12  C 0 11.0909090909091  0.312500000000114 10.3181818181818  0.9375 9.68181818181827  C 1.56249999999989 9.04545454545442  2.32142857142856 8.72727272727266  3.21428571428567 8.72727272727266  C 4.10714285714289 8.72727272727266  4.86607142857144 9.04545454545442  5.49107142857133 9.68181818181827  Z M 29.8409598214287 18.7073863636364  C 29.9469866071429 18.8153409090909  30 18.9431818181818  30 19.0909090909091  L 30 22.3636363636364  C 30 22.5113636363635  29.9469866071429 22.6392045454544  29.8409598214287 22.7471590909091  C 29.7349330357143 22.8551136363635  29.6093750000001 22.9090909090909  29.4642857142857 23  L 9.107142857143 23  C 8.96205357142856 22.9090909090909  8.83649553571422 22.8551136363635  8.73046875 22.7471590909091  C 8.62444196428578 22.6392045454544  8.57142857142867 22.5113636363635  8.57142857142867 22.3636363636364  L 8.57142857142867 19.0909090909091  C 8.57142857142867 18.9431818181818  8.62444196428578 18.8153409090909  8.73046875 18.7073863636364  C 8.83649553571422 18.5994318181818  8.96205357142856 18.5454545454545  9.107142857143 18.5454545454545  L 29.4642857142857 18.5454545454545  C 29.6093750000001 18.5454545454545  29.7349330357143 18.5994318181818  29.8409598214287 18.7073863636364  Z M 5.49107142857133 0.954545454545467  C 6.11607142857144 1.59090909090918  6.42857142857133 2.36363636363646  6.42857142857133 3.27272727272734  C 6.42857142857133 4.18181818181824  6.11607142857144 4.95454545454552  5.49107142857133 5.59090909090907  C 4.86607142857144 6.22727272727261  4.10714285714289 6.54545454545453  3.21428571428567 6.54545454545453  C 2.32142857142856 6.54545454545453  1.56249999999989 6.22727272727261  0.9375 5.59090909090907  C 0.312500000000114 4.95454545454552  0 4.18181818181824  0 3.27272727272734  C 0 2.36363636363646  0.312500000000114 1.59090909090918  0.9375 0.954545454545467  C 1.56249999999989 0.318181818181756  2.32142857142856 0  3.21428571428567 0  C 4.10714285714289 0  4.86607142857144 0.318181818181756  5.49107142857133 0.954545454545467  Z M 29.8409598214287 9.9801136363636  C 29.9469866071429 10.0880681818182  30 10.2159090909092  30 10.3636363636364  L 30 13.6363636363636  C 30 13.7840909090908  29.9469866071429 13.9119318181818  29.8409598214287 14.0198863636364  C 29.7349330357143 14.1278409090909  29.6093750000001 14.1818181818183  29.4642857142857 14  L 9.107142857143 14  C 8.96205357142856 14.1818181818183  8.83649553571422 14.1278409090909  8.73046875 14.0198863636364  C 8.62444196428578 13.9119318181818  8.57142857142867 13.7840909090908  8.57142857142867 13.6363636363636  L 8.57142857142867 10.3636363636364  C 8.57142857142867 10.2159090909092  8.62444196428578 10.0880681818182  8.73046875 9.9801136363636  C 8.83649553571422 9.87215909090912  8.96205357142856 9.81818181818173  9.107142857143 10  L 29.4642857142857 10  C 29.6093750000001 9.81818181818173  29.7349330357143 9.87215909090912  29.8409598214287 9.9801136363636  Z M 29.8409598214287 1.25284090909093  C 29.9469866071429 1.36079545454558  30 1.48863636363652  30 1.6363636363636  L 30 4.90909090909093  C 30 5.05681818181819  29.9469866071429 5.18465909090912  29.8409598214287 5.2926136363636  C 29.7349330357143 5.40056818181824  29.6093750000001 5.45454545454547  29.4642857142857 5.45454545454547  L 9.107142857143 5.45454545454547  C 8.96205357142856 5.45454545454547  8.83649553571422 5.40056818181824  8.73046875 5.2926136363636  C 8.62444196428578 5.18465909090912  8.57142857142867 5.05681818181819  8.57142857142867 4.90909090909093  L 8.57142857142867 1.6363636363636  C 8.57142857142867 1.48863636363652  8.62444196428578 1.36079545454558  8.73046875 1.25284090909093  C 8.83649553571422 1.14488636363646  8.96205357142856 1.09090909090907  9.107142857143 1  L 29.4642857142857 1  C 29.6093750000001 1.09090909090907  29.7349330357143 1.14488636363646  29.8409598214287 1.25284090909093  Z " fill-rule="nonzero" fill="#333333" stroke="none" transform="matrix(1 0 0 1 628 254 )" />
  </g>
</svg>