<?xml version="1.0" encoding="utf-8"?>
<svg version="1.1" xmlns:xlink="http://www.w3.org/1999/xlink" width="50px" height="50px" xmlns="http://www.w3.org/2000/svg">
  <g transform="matrix(1 0 0 1 -271 -452 )">
    <path d="M 296 452  C 310 452  321 463  321 477  C 321 491  310 502  296 502  C 282 502  271 491  271 477  C 271 463  282 452  296 452  Z " fill-rule="nonzero" fill="#ffffff" stroke="none" />
    <path d="M 296 452.5  C 309.72 452.5  320.5 463.28  320.5 477  C 320.5 490.72  309.72 501.5  296 501.5  C 282.28 501.5  271.5 490.72  271.5 477  C 271.5 463.28  282.28 452.5  296 452.5  Z " stroke-width="1" stroke="#797979" fill="none" />
  </g>
</svg>