<?xml version="1.0" encoding="utf-8"?>
<svg version="1.1" xmlns:xlink="http://www.w3.org/1999/xlink" width="10px" height="10px" xmlns="http://www.w3.org/2000/svg">
  <g transform="matrix(1 0 0 1 -209 -132 )">
    <path d="M 214 132  C 216.8 132  219 134.2  219 137  C 219 139.8  216.8 142  214 142  C 211.2 142  209 139.8  209 137  C 209 134.2  211.2 132  214 132  Z " fill-rule="nonzero" fill="#ffffff" stroke="none" />
    <path d="M 214 132.5  C 216.52 132.5  218.5 134.48  218.5 137  C 218.5 139.52  216.52 141.5  214 141.5  C 211.48 141.5  209.5 139.52  209.5 137  C 209.5 134.48  211.48 132.5  214 132.5  Z " stroke-width="1" stroke="#797979" fill="none" />
  </g>
</svg>