<?xml version="1.0" encoding="utf-8"?>
<svg version="1.1" xmlns:xlink="http://www.w3.org/1999/xlink" width="10px" height="10px" xmlns="http://www.w3.org/2000/svg">
  <g transform="matrix(1 0 0 1 -194 -132 )">
    <path d="M 199 132  C 201.8 132  204 134.2  204 137  C 204 139.8  201.8 142  199 142  C 196.2 142  194 139.8  194 137  C 194 134.2  196.2 132  199 132  Z " fill-rule="nonzero" fill="#000000" stroke="none" />
    <path d="M 199 132.5  C 201.52 132.5  203.5 134.48  203.5 137  C 203.5 139.52  201.52 141.5  199 141.5  C 196.48 141.5  194.5 139.52  194.5 137  C 194.5 134.48  196.48 132.5  199 132.5  Z " stroke-width="1" stroke="#797979" fill="none" />
  </g>
</svg>