<svg t="1593696912438" class="icon" viewBox="0 0 1024 1024" version="1.1" xmlns="http://www.w3.org/2000/svg" p-id="4165" width="200" height="200"><path d="M232.4224 319.93344c0-150.21056 124.33408-271.92832 277.67808-271.92832 153.33888 0 277.67808 121.71776 277.67808 271.92832s-124.3392 271.92832-277.67808 271.92832-277.67808-121.71776-277.67808-271.92832m-48.9728 0c0 129.00864 77.93152 240.25088 190.25408 290.87744-189.12768 53.59616-331.12576 215.71584-351.14496 413.05088h49.18272c24.43776-215.97184 211.3536-383.99488 438.36416-383.99488 226.95936 0 413.93152 168.02304 438.30784 383.99488h49.23392c-20.0192-197.33504-162.01728-359.45472-351.14496-413.05088 112.3328-50.62656 190.25408-161.8688 190.25408-290.87744C836.7616 143.232 690.49856 0 510.1056 0c-180.44928 0-326.656 143.232-326.656 319.93344" p-id="4166"></path></svg>