<?xml version="1.0" encoding="utf-8"?>
<svg version="1.1" xmlns:xlink="http://www.w3.org/1999/xlink" width="21px" height="21px" xmlns="http://www.w3.org/2000/svg">
  <g transform="matrix(1 0 0 1 -642 -678 )">
    <path d="M 16.365234375 11.990234375  C 16.5384114583333 11.8170572916667  16.625 11.6119791666667  16.625 11.375  L 16.625 9.62500000000004  C 16.625 9.38802083333334  16.5384114583333 9.18294270833334  16.365234375 9.00976562500004  C 16.1920572916667 8.83658854166662  15.9869791666667 8.74999999999996  15.75 8.74999999999996  L 12.25 8.74999999999996  L 12.25 5.25  C 12.25 5.01302083333331  12.1634114583334 4.80794270833331  11.990234375 4.634765625  C 11.8170572916667 4.46158854166669  11.6119791666667 4.37500000000004  11.375 4.37500000000004  L 9.62500000000002 4.37500000000004  C 9.38802083333333 4.37500000000004  9.18294270833333 4.46158854166669  9.00976562500002 4.634765625  C 8.83658854166664 4.80794270833331  8.74999999999998 5.01302083333331  8.74999999999998 5.25  L 8.74999999999998 8.74999999999996  L 5.25 8.74999999999996  C 5.01302083333334 8.74999999999996  4.80794270833334 8.83658854166662  4.634765625 9.00976562500004  C 4.46158854166666 9.18294270833334  4.37500000000002 9.38802083333334  4.37500000000002 9.62500000000004  L 4.37500000000002 11.375  C 4.37500000000002 11.6119791666667  4.46158854166666 11.8170572916667  4.634765625 11.990234375  C 4.80794270833334 12.1634114583334  5.01302083333334 12.25  5.25 12.25  L 8.74999999999998 12.25  L 8.74999999999998 15.75  C 8.74999999999998 15.9869791666667  8.83658854166664 16.1920572916667  9.00976562500002 16.365234375  C 9.18294270833333 16.5384114583333  9.38802083333333 16.625  9.62500000000002 16.625  L 11.375 16.625  C 11.6119791666667 16.625  11.8170572916667 16.5384114583333  11.990234375 16.365234375  C 12.1634114583334 16.1920572916667  12.25 15.9869791666667  12.25 15.75  L 12.25 12.25  L 15.75 12.25  C 15.9869791666667 12.25  16.1920572916667 12.1634114583334  16.365234375 11.990234375  Z M 19.591796875 5.2294921875  C 20.5305989583334 6.83821614583331  21 8.59505208333327  21 10.5  C 21 12.4049479166666  20.5305989583334 14.1617838541667  19.591796875 15.7705078125  C 18.6529947916667 17.3792317708333  17.3792317708333 18.6529947916667  15.7705078125 19.591796875  C 14.1617838541667 20.5305989583334  12.4049479166666 21  10.5 21  C 8.59505208333336 21  6.83821614583334 20.5305989583334  5.2294921875 19.591796875  C 3.62076822916666 18.6529947916667  2.34700520833334 17.3792317708333  1.40820312499998 15.7705078125  C 0.469401041666646 14.1617838541667  0 12.4049479166666  0 10.5  C 0 8.59505208333327  0.469401041666646 6.83821614583331  1.40820312499998 5.2294921875  C 2.34700520833334 3.62076822916669  3.62076822916666 2.34700520833331  5.2294921875 1.40820312499996  C 6.83821614583334 0.469401041666618  8.59505208333336 0  10.5 0  C 12.4049479166666 0  14.1617838541667 0.469401041666618  15.7705078125 1.40820312499996  C 17.3792317708333 2.34700520833331  18.6529947916667 3.62076822916669  19.591796875 5.2294921875  Z " fill-rule="nonzero" fill="#333333" stroke="none" transform="matrix(1 0 0 1 642 678 )" />
  </g>
</svg>