<?xml version="1.0" encoding="utf-8"?>
<svg version="1.1" xmlns:xlink="http://www.w3.org/1999/xlink" width="100px" height="100px" xmlns="http://www.w3.org/2000/svg">
  <g transform="matrix(1 0 0 1 -426 -787 )">
    <path d="M 476 787  C 504 787  526 809  526 837  C 526 865  504 887  476 887  C 448 887  426 865  426 837  C 426 809  448 787  476 787  Z " fill-rule="nonzero" fill="#ffffff" stroke="none" />
    <path d="M 476 787.5  C 503.72 787.5  525.5 809.28  525.5 837  C 525.5 864.72  503.72 886.5  476 886.5  C 448.28 886.5  426.5 864.72  426.5 837  C 426.5 809.28  448.28 787.5  476 787.5  Z " stroke-width="1" stroke="#797979" fill="none" />
  </g>
</svg>