<svg t="1593700228669" class="icon" viewBox="0 0 1024 1024" version="1.1" xmlns="http://www.w3.org/2000/svg" p-id="39844" width="200" height="200"><path d="M454.144 979.456c-8.192 0-16.384-2.048-24.064-5.632-21.504-10.752-31.744-33.792-26.624-56.832l71.68-316.928H183.808c-20.48 0-38.4-11.776-46.592-30.208-8.192-18.432-5.12-39.424 8.192-54.784L532.48 61.952c15.872-18.432 40.96-23.04 62.464-12.288 21.504 10.752 31.744 33.792 26.624 56.832l-71.68 316.928h291.328c20.48 0 37.888 11.264 46.592 29.696 8.704 18.432 5.632 39.424-7.68 54.784l-387.072 453.12c-10.752 12.288-24.576 18.432-38.912 18.432z m-0.512-51.2s0.512 0 0 0l387.072-453.12-291.328-0.512c-15.872 0-30.208-7.168-39.936-19.456-9.728-12.288-13.312-28.16-10.24-43.008l71.68-316.928h-0.512l-386.56 453.12v0.512h291.328c15.872 0 30.208 7.168 39.936 19.456 9.728 12.288 13.312 28.16 10.24 43.008l-71.68 316.928z m-269.824-379.392z" fill="" p-id="39845"></path></svg>