<svg t="1593698913575" class="icon" viewBox="0 0 1166 1024" version="1.1" xmlns="http://www.w3.org/2000/svg" p-id="32108" width="200" height="200"><path d="M824.519111 401.521778V56.888889a56.888889 56.888889 0 0 0-56.888889-56.888889H397.880889a56.888889 56.888889 0 0 0-56.888889 56.888889v171.178667H56.888889a56.888889 56.888889 0 0 0-56.888889 56.888888V967.111111a56.888889 56.888889 0 0 0 56.888889 56.888889h1052.444444a56.888889 56.888889 0 0 0 56.888889-56.888889V458.410667a56.888889 56.888889 0 0 0-56.888889-56.888889H824.519111zM85.333333 930.929778v-610.417778c0-4.181333 3.271111-7.623111 7.253334-7.623111h241.493333c3.982222 0 7.253333 3.413333 7.253333 7.623111v610.531556a7.452444 7.452444 0 0 1-7.253333 7.623111h-241.493333A7.68 7.68 0 0 1 85.333333 930.929778zM436.053333 938.666667c-4.778667 0-8.675556-3.299556-8.675555-7.310223V260.494222H426.666667v-167.822222c0-4.039111 3.896889-7.338667 8.647111-7.338667h295.594666c4.750222 0 8.647111 3.299556 8.647112 7.310223v838.712888c0 4.010667-3.896889 7.310222-8.647112 7.310223H436.053333z m637.582223 0h-241.493334c-3.982222 0-7.253333-3.470222-7.253333-7.708445V491.235556c0-4.238222 3.271111-7.708444 7.253333-7.708445h241.493334c3.982222 0 7.253333 3.470222 7.253333 7.708445v439.808a7.480889 7.480889 0 0 1-7.253333 7.594666z" p-id="32109"></path><path d="M512 202.353778v41.927111l41.102222-31.687111V341.333333H597.333333V170.666667h-44.231111L512 202.353778zM234.097778 519.338667c14.193778-14.222222 21.902222-23.836444 21.902222-41.585778C256 445.866667 232.163556 426.666667 199.452444 426.666667c-30.72 0-57.116444 18.318222-57.116444 51.626666h40.675556c0-13.112889 8.96-16.440889 16.327111-16.440889 10.496 0 15.900444 6.4 15.900444 15.672889 0 7.168-2.56 11.377778-8.988444 18.090667L142.222222 562.147556V597.333333h113.664v-35.185777H191.857778l42.268444-42.808889z m704.455111 90.225777c8.135111 0 15.587556 6.4 15.587555 18.773334 0 8.817778-4.551111 18.346667-16.355555 18.346666h-5.575111v39.054223h5.575111c10.581333 0 18.261333 8.789333 18.261333 20.650666 0 14.023111-7.253333 20.935111-17.493333 20.935111-9.784889 0-17.464889-6.912-17.464889-20.679111H881.777778C881.777778 750.648889 910.279111 768 938.666667 768c29.952 0 56.888889-19.256889 56.888889-60.216889 0-23.324444-10.353778-35.185778-19.712-42.581333 8.704-6.4 17.720889-16.725333 17.720888-38.286222 0-33.792-23.267556-58.026667-55.011555-58.026667-30.492444 0-54.983111 22.328889-54.983111 59.050667h39.281778c0.113778-11.719111 7.452444-18.375111 15.701333-18.375112z" p-id="32110"></path></svg>