<svg t="1593698884742" class="icon" viewBox="0 0 1024 1024" version="1.1" xmlns="http://www.w3.org/2000/svg" p-id="31835" width="200" height="200"><path d="M512 0c282.752 0 512 229.248 512 512s-229.248 512-512 512S0 794.752 0 512 229.248 0 512 0z m0 42.666667C252.8 42.666667 42.666667 252.8 42.666667 512s210.133333 469.333333 469.333333 469.333333 469.333333-210.133333 469.333333-469.333333S771.2 42.666667 512 42.666667z m-9.984 734.762666c16.853333 0 31.744 4.992 43.690667 16.938667 10.88 10.965333 16.853333 24.917333 16.853333 41.813333 0 17.962667-5.973333 31.914667-17.877333 42.88-11.904 10.965333-25.813333 16.938667-42.666667 16.938667s-30.762667-5.973333-42.666667-16.938667c-11.946667-11.946667-16.896-25.898667-16.896-42.837333s4.992-30.890667 16.896-41.813333c11.904-11.989333 25.813333-16.981333 42.666667-16.981334zM516.906667 170.666667c63.530667 0 114.133333 16.938667 152.832 52.821333C706.474667 257.365333 725.333333 304.170667 725.333333 363.946667c0 44.842667-12.885333 83.712-37.717333 116.565333-7.936 9.6-26.666667 28.074667-56.234667 54.997333l-32 28.8c-17.621333 16.341333-30.122667 32.042667-38.826666 47.744-6.101333 10.410667-11.050667 29.525333-14.848 57.429334a44.117333 44.117333 0 0 1-47.616 37.973333 36.394667 36.394667 0 0 1-32.256-40.106667c3.712-33.92 8.490667-57.002667 14.336-69.248 13.909333-29.866667 46.677333-67.754667 100.266666-115.584 15.872-15.957333 27.776-27.904 33.706667-35.84 19.882667-24.917333 29.824-50.858667 29.824-78.72 0-39.850667-11.946667-70.741333-33.749333-92.672-22.826667-23.893333-55.594667-34.858667-97.28-34.858666-49.621333 0-86.357333 15.914667-110.165334 48.810666-11.093333 14.165333-20.053333 39.722667-26.965333 76.714667a39.424 39.424 0 0 1-47.36 31.232 38.229333 38.229333 0 0 1-28.842667-45.653333c12.202667-54.101333 29.056-92.458667 50.56-115.114667C389.845333 192.597333 445.44 170.666667 516.906667 170.666667z" p-id="31836"></path></svg>